<?xml version="1.0" encoding="UTF-8" standalone="no"?>
<!DOCTYPE svg PUBLIC "-//W3C//DTD SVG 1.1//EN" "http://www.w3.org/Graphics/SVG/1.1/DTD/svg11.dtd">
<!-- Created with Vectornator (http://vectornator.io/) -->
<svg height="1024.0px" stroke-miterlimit="10" style="fill-rule:nonzero;clip-rule:evenodd;stroke-linecap:round;stroke-linejoin:round;" version="1.1" viewBox="0 0 1024 1024" width="1024.0px" xml:space="preserve" xmlns="http://www.w3.org/2000/svg" xmlns:xlink="http://www.w3.org/1999/xlink">
<defs>
<path d="M99.6312 62C78.8534 62 62 78.4475 62 98.7313L62 242L107 242L107 140.047C107 121.792 122.163 107 140.863 107L242 107L242 62L99.6312 62ZM782 62L782 107L883.137 107C901.838 107 917 121.792 917 140.047L917 242L962 242L962 98.7313C962 78.4475 945.147 62 924.369 62L782 62ZM62 782L62 925.269C61.9999 945.553 78.8534 962 99.6312 962L242 962L242 917L140.863 917C122.162 917 107 902.208 107 883.953L107 782L62 782ZM917 782L917 883.953C917 902.208 901.838 917 883.137 917L782 917L782 962L924.369 962C945.147 962 962 945.553 962 925.269L962 782L917 782Z" id="Fill"/>
</defs>
<g id="Layer-1">
<g opacity="1">
<use fill="#ffffff" fill-rule="nonzero" stroke="none" xlink:href="#Fill"/>
<mask height="964" id="StrokeMask" maskUnits="userSpaceOnUse" width="964" x="30" y="30">
<rect fill="#ffffff" height="964" stroke="none" width="964" x="30" y="30"/>
<use fill="#000000" fill-rule="evenodd" stroke="none" xlink:href="#Fill"/>
</mask>
<use fill="none" mask="url(#StrokeMask)" stroke="#000000" stroke-linecap="butt" stroke-linejoin="round" stroke-width="64" xlink:href="#Fill"/>
</g>
</g>
</svg>
